<svg xmlns="http://www.w3.org/2000/svg" width="66" height="63" viewBox="0 0 66 63" fill="none"><script xmlns=""/>
<path d="M40.4407 18.2117C40.8953 18.2111 41.3401 18.0946 41.7218 17.876C42.1034 17.6574 42.4057 17.3461 42.5923 16.9793H48.1659C48.4184 16.973 48.6582 16.8799 48.8343 16.7196C49.0103 16.5594 49.1088 16.3447 49.1088 16.1213C49.1088 15.8978 49.0103 15.6831 48.8343 15.5229C48.6582 15.3626 48.4184 15.2695 48.1659 15.2632H42.5923C42.3541 14.8006 41.9343 14.4301 41.4109 14.2205V8.52283C41.4038 8.29944 41.2985 8.0873 41.1174 7.93151C40.9363 7.77572 40.6937 7.68856 40.4411 7.68856C40.1885 7.68856 39.9459 7.77572 39.7648 7.93151C39.5837 8.0873 39.4784 8.29944 39.4713 8.52283V14.2205C38.9762 14.4153 38.572 14.7549 38.3263 15.1822C38.0807 15.6095 38.0087 16.0985 38.1224 16.5673C38.2361 17.036 38.5285 17.4559 38.9506 17.7564C39.3728 18.0569 39.8989 18.2198 40.4407 18.2178V18.2117ZM40.4407 16.4956C40.3571 16.4956 40.2754 16.4736 40.2059 16.4325C40.1364 16.3914 40.0822 16.333 40.0502 16.2647C40.0182 16.1964 40.0098 16.1212 40.0262 16.0486C40.0425 15.9761 40.0827 15.9094 40.1418 15.8571C40.2009 15.8048 40.2763 15.7692 40.3582 15.7548C40.4402 15.7404 40.5252 15.7478 40.6025 15.7761C40.6797 15.8044 40.7457 15.8523 40.7921 15.9138C40.8386 15.9753 40.8634 16.0476 40.8634 16.1216C40.8632 16.2207 40.8186 16.3157 40.7394 16.3858C40.6601 16.4559 40.5527 16.4954 40.4407 16.4956ZM65.6049 40.6563C65.1765 39.8715 64.4254 39.2611 63.5054 38.9498C62.5853 38.6385 61.5656 38.6499 60.6546 38.9815L41.8006 45.9272C40.6953 46.029 39.5785 45.8948 38.5441 45.5356C38.2378 45.4563 37.9177 45.3723 37.5762 45.2917L45.1621 43.0993C46.1084 42.8608 46.9264 42.3295 47.4671 41.6021C48.0078 40.8747 48.2352 39.9997 48.1079 39.1364C47.9806 38.2731 47.507 37.479 46.7735 36.8987C46.04 36.3184 45.0953 35.9905 44.1115 35.9748C41.8676 36.0288 39.6396 36.326 37.4774 36.8596C35.1527 37.3454 32.9597 37.8047 30.9153 37.5778C30.2468 37.5033 29.5608 37.4125 28.8969 37.3251C24.3953 36.7323 19.7406 36.1191 15.6203 39.5649C14.7443 40.2979 13.7328 41.0763 12.6731 41.8778C12.3079 41.6613 11.8773 41.5475 11.4378 41.5512C10.9982 41.555 10.5702 41.6761 10.2098 41.8988L8.80932 42.7633C8.69648 42.5964 8.54644 42.4516 8.36833 42.3377C8.19023 42.2238 7.98778 42.1432 7.77332 42.1007C7.52541 42.0492 7.26801 42.0446 7.01796 42.0873C6.76792 42.1299 6.53086 42.2187 6.3223 42.348L0.754075 45.7978C0.369991 46.0363 0.108498 46.3998 0.0269632 46.8086C-0.0545718 47.2175 0.050509 47.6383 0.319153 47.9786L11.6784 62.3327C11.8112 62.5015 11.9806 62.6452 12.1767 62.7556C12.3728 62.866 12.5918 62.9408 12.8209 62.9756C12.924 62.9917 13.0285 62.9999 13.1333 63C13.4951 63.0001 13.8482 62.9012 14.144 62.7168L17.8776 60.4038C18.2411 60.1713 18.4932 59.8268 18.5841 59.4382C18.6751 59.0495 18.5984 58.6448 18.3692 58.3036L18.2926 58.1783C18.35 58.1492 18.4067 58.1187 18.4611 58.0848L21.5239 56.1878C21.9084 55.9486 22.1956 55.606 22.3426 55.2109C22.4896 54.8159 22.4888 54.3894 22.3401 53.9948C22.6647 53.8403 23.024 53.7514 23.3921 53.7345C23.7602 53.7176 24.1279 53.7732 24.4688 53.8972C27.8279 55.2758 31.448 56.0882 35.1435 56.2928C35.8311 56.3348 36.5032 56.3558 37.1596 56.3558C40.6252 56.3558 43.6184 55.7732 45.7279 54.6716L64.1049 45.0749C64.9405 44.6431 65.56 43.947 65.8384 43.127C66.1168 42.307 66.0333 41.424 65.6049 40.6563ZM13.1677 61.2256L2.00524 47.1175L7.27561 43.852L16.6364 59.078L13.1677 61.2256ZM20.4075 54.784L17.3623 56.6702L9.74502 44.2782L11.3224 43.3012C11.375 43.2694 11.4396 43.257 11.5025 43.2668C11.5653 43.2765 11.6213 43.3076 11.6585 43.3534L20.4688 54.4866C20.5047 54.5332 20.5187 54.5904 20.5077 54.646C20.4967 54.7015 20.4616 54.7511 20.4098 54.784H20.4075ZM63.1141 43.5993L44.7371 53.1967C42.5632 54.3322 39.2026 54.8227 35.2729 54.5835C31.8332 54.3956 28.4631 53.6427 25.3348 52.3634C24.6942 52.1051 23.9932 51.9857 23.2899 52.015C22.5867 52.0443 21.9015 52.2216 21.2911 52.5321L13.9051 43.2003C14.9947 42.3765 16.0384 41.5743 16.9526 40.8087C20.3876 37.9362 24.38 38.4626 28.6113 39.0195C29.2859 39.1082 29.9827 39.1997 30.6733 39.2769C33.0616 39.5432 35.5333 39.0263 37.9238 38.5263C39.9338 38.029 42.0041 37.7474 44.0901 37.6875C44.5975 37.6917 45.0865 37.856 45.4692 38.1509C45.8519 38.4457 46.103 38.8518 46.1774 39.2959C46.2759 39.7585 46.1727 40.2369 45.8885 40.6349C45.6044 41.0329 45.1604 41.3208 44.646 41.4408L44.5847 41.4564L32.7913 44.8656C32.4054 44.9873 32.0462 45.167 31.7292 45.3967L30.9857 45.7964C30.7985 45.8975 30.6554 46.0518 30.58 46.2341C30.5046 46.4163 30.5012 46.6158 30.5704 46.8C30.6396 46.9842 30.7773 47.1422 30.9611 47.2483C31.1449 47.3543 31.3638 47.4021 31.5822 47.3838C32.0295 47.2957 32.4437 47.1074 32.7852 46.8371L33.328 46.5444C34.9153 46.5075 36.4971 46.7223 37.9989 47.1785C39.3568 47.6391 40.8261 47.7819 42.2646 47.5931C42.3289 47.5822 42.3918 47.5654 42.4522 47.543L61.402 40.5648C61.8556 40.4025 62.362 40.3993 62.8182 40.5557C63.2744 40.7122 63.6461 41.0166 63.8576 41.407C64.0707 41.7877 64.1124 42.2259 63.9744 42.6328C63.8364 43.0398 63.5289 43.3852 63.1141 43.5993ZM7.21741 47.6961L8.81009 49.709C8.94975 49.8955 9.00152 50.123 8.95438 50.3429C8.90723 50.5628 8.7649 50.7577 8.5577 50.886C8.35051 51.0144 8.09484 51.0661 7.84519 51.0301C7.59554 50.9941 7.37165 50.8733 7.22124 50.6933L5.62857 48.6805C5.48891 48.4939 5.43713 48.2665 5.48428 48.0466C5.53142 47.8267 5.67376 47.6318 5.88096 47.5034C6.08815 47.3751 6.34382 47.3234 6.59346 47.3594C6.84311 47.3954 7.067 47.5162 7.21741 47.6961ZM29.5286 33.943C31.8541 33.9431 34.0881 33.1411 35.7561 31.7073C39.6474 32.6227 43.7718 32.3721 47.4851 30.9945C51.1984 29.617 54.2916 27.1902 56.2815 24.0931C58.2714 20.9959 59.046 17.4029 58.4843 13.8751C57.9227 10.3474 56.0563 7.08349 53.1769 4.59328C50.2974 2.10307 46.5669 0.526736 42.568 0.110469C38.5691 -0.305798 34.5269 0.461441 31.0729 2.29236C27.6188 4.12328 24.9474 6.91478 23.4757 10.2309C22.004 13.547 21.815 17.201 22.9382 20.6222C21.7539 21.7551 20.9689 23.169 20.679 24.6906C20.3892 26.2123 20.6073 27.7758 21.3065 29.1895C22.0057 30.6032 23.1558 31.8058 24.6157 32.65C26.0757 33.4942 27.7822 33.9433 29.5263 33.9423L29.5286 33.943ZM29.5286 32.2269C28.1376 32.2271 26.7777 31.8622 25.6211 31.1785C24.4644 30.4949 23.5628 29.523 23.0304 28.386C22.498 27.2489 22.3586 25.9977 22.6299 24.7906C22.9011 23.5834 23.5709 22.4746 24.5545 21.6042C25.538 20.7339 26.7912 20.1412 28.1555 19.901C29.5198 19.6609 30.9339 19.7841 32.2191 20.255C33.5042 20.726 34.6027 21.5236 35.3755 22.5469C36.1484 23.5703 36.5609 24.7734 36.5609 26.0042C36.5586 27.6541 35.8167 29.2359 34.4979 30.4024C33.1791 31.5689 31.3911 32.2248 29.5263 32.2263L29.5286 32.2269ZM28.3647 16.9834H28.9987C29.2512 16.9771 29.491 16.8839 29.6671 16.7237C29.8431 16.5635 29.9416 16.3488 29.9416 16.1253C29.9416 15.9018 29.8431 15.6872 29.6671 15.5269C29.491 15.3667 29.2512 15.2735 28.9987 15.2673H28.3632C28.5659 13.0219 29.5659 10.8908 31.2201 9.17865L31.6649 9.57159C31.755 9.65127 31.8619 9.71446 31.9795 9.75758C32.0972 9.8007 32.2233 9.82289 32.3506 9.82289C32.478 9.82289 32.6041 9.8007 32.7217 9.75758C32.8394 9.71446 32.9463 9.65127 33.0363 9.57159C33.1264 9.49192 33.1978 9.39734 33.2465 9.29324C33.2953 9.18914 33.3203 9.07757 33.3203 8.9649C33.3203 8.85223 33.2953 8.74065 33.2465 8.63656C33.1978 8.53246 33.1264 8.43788 33.0363 8.3582L32.5914 7.96526C34.5253 6.50005 36.9335 5.61383 39.4713 5.43347V5.99511C39.4677 6.10982 39.4901 6.22401 39.5372 6.33093C39.5843 6.43785 39.6551 6.53533 39.7455 6.61761C39.8359 6.69988 39.9441 6.76528 40.0635 6.80994C40.183 6.8546 40.3114 6.87761 40.4411 6.87761C40.5708 6.87761 40.6992 6.8546 40.8186 6.80994C40.9381 6.76528 41.0462 6.69988 41.1367 6.61761C41.2271 6.53533 41.2979 6.43785 41.345 6.33093C41.3921 6.22401 41.4145 6.10982 41.4109 5.99511V5.43347C43.9489 5.61226 46.358 6.49706 48.293 7.96119L47.8482 8.35414C47.7581 8.43381 47.6867 8.5284 47.638 8.63249C47.5892 8.73659 47.5641 8.84816 47.5641 8.96083C47.5641 9.07351 47.5892 9.18508 47.638 9.28917C47.6867 9.39327 47.7581 9.48786 47.8482 9.56753C47.9382 9.6472 48.0451 9.7104 48.1628 9.75352C48.2804 9.79664 48.4065 9.81883 48.5339 9.81883C48.6612 9.81883 48.7873 9.79664 48.9049 9.75352C49.0226 9.7104 49.1295 9.6472 49.2196 9.56753L49.6644 9.17458C51.3187 10.8867 52.3184 13.0179 52.5205 15.2632H51.8857C51.6333 15.2695 51.3935 15.3626 51.2174 15.5229C51.0414 15.6831 50.9428 15.8978 50.9428 16.1213C50.9428 16.3447 51.0414 16.5594 51.2174 16.7196C51.3935 16.8799 51.6333 16.973 51.8857 16.9793H52.5251C52.3224 19.2248 51.3224 21.3562 49.6683 23.0686L49.2234 22.675C49.1333 22.5953 49.0264 22.5321 48.9088 22.489C48.7911 22.4459 48.665 22.4237 48.5377 22.4237C48.4103 22.4237 48.2842 22.4459 48.1666 22.489C48.0489 22.5321 47.942 22.5953 47.852 22.675C47.762 22.7546 47.6905 22.8492 47.6418 22.9533C47.5931 23.0574 47.568 23.169 47.568 23.2817C47.568 23.3943 47.5931 23.5059 47.6418 23.61C47.6905 23.7141 47.762 23.8087 47.852 23.8884L48.2969 24.282C46.3617 25.7459 43.9527 26.6306 41.4147 26.8097V26.2481C41.4183 26.1334 41.3959 26.0192 41.3488 25.9122C41.3018 25.8053 41.2309 25.7078 41.1405 25.6256C41.0501 25.5433 40.9419 25.4779 40.8225 25.4332C40.703 25.3886 40.5746 25.3656 40.4449 25.3656C40.3152 25.3656 40.1868 25.3886 40.0674 25.4332C39.9479 25.4779 39.8398 25.5433 39.7493 25.6256C39.6589 25.7078 39.5881 25.8053 39.541 25.9122C39.4939 26.0192 39.4715 26.1334 39.4752 26.2481V26.809C39.1367 26.7851 38.8001 26.749 38.4652 26.7006C38.4882 26.471 38.5019 26.2386 38.5019 26.0035C38.5038 24.8861 38.2387 23.7809 37.7239 22.7606C37.2092 21.7402 36.4564 20.8276 35.515 20.0828C34.5736 19.3379 33.4648 18.7776 32.2614 18.4385C31.0581 18.0995 29.7873 17.9894 28.5324 18.1154C28.4527 17.7397 28.396 17.3604 28.3624 16.9793L28.3647 16.9834ZM40.4407 1.70929C42.7201 1.71022 44.974 2.13444 47.0565 2.95451C49.139 3.77458 51.0038 4.97224 52.5302 6.47005C54.0567 7.96786 55.2109 9.73246 55.9182 11.6497C56.6254 13.567 56.87 15.5943 56.6361 17.6005C56.4022 19.6067 55.695 21.5471 54.5603 23.2963C53.4255 25.0454 51.8885 26.5644 50.0486 27.7549C48.2087 28.9455 46.1068 29.7811 43.879 30.2077C41.6511 30.6344 39.3469 30.6425 37.1152 30.2317C37.5272 29.6559 37.8533 29.0354 38.0854 28.3856C41.036 28.8269 44.0687 28.4227 46.7415 27.2321C49.4143 26.0415 51.5874 24.1266 52.944 21.7666C54.3006 19.4066 54.7697 16.7249 54.283 14.1125C53.7963 11.5001 52.3792 9.09349 50.2383 7.24361C48.0974 5.39372 45.3447 4.19725 42.3814 3.82862C39.4181 3.45999 36.3992 3.93848 33.7648 5.19433C31.1305 6.45018 29.0183 8.41772 27.7363 10.8101C26.4543 13.2025 26.0696 15.8947 26.6381 18.4942C25.9104 18.7126 25.2175 19.0132 24.5768 19.3885C24.0223 17.2748 24.0141 15.0777 24.5529 12.9608C25.0916 10.8439 26.1634 8.86197 27.6883 7.16259C29.2131 5.46321 31.1519 4.09025 33.3599 3.14604C35.5679 2.20182 37.9883 1.71071 40.4407 1.70929ZM32.1251 23.5733V24.3111C32.1288 24.4258 32.1064 24.54 32.0593 24.6469C32.0122 24.7539 31.9413 24.8513 31.8509 24.9336C31.7605 25.0159 31.6524 25.0813 31.5329 25.1259C31.4134 25.1706 31.285 25.1936 31.1554 25.1936C31.0257 25.1936 30.8973 25.1706 30.7778 25.1259C30.6583 25.0813 30.5502 25.0159 30.4598 24.9336C30.3694 24.8513 30.2985 24.7539 30.2514 24.6469C30.2043 24.54 30.1819 24.4258 30.1856 24.3111V23.5733C30.0999 23.4953 29.9975 23.4332 29.8842 23.3908C29.771 23.3485 29.6493 23.3266 29.5263 23.3266C29.4034 23.3266 29.2816 23.3485 29.1684 23.3908C29.0552 23.4332 28.9527 23.4953 28.867 23.5733V24.8978C28.9443 24.985 29.0454 25.0533 29.1607 25.0965C29.276 25.1396 29.4018 25.1561 29.5263 25.1444C30.1644 25.1041 30.7947 25.2876 31.2811 25.6553C31.7674 26.023 32.0706 26.5452 32.1251 27.1092V28.4343C32.1022 28.8501 31.9329 29.2491 31.6408 29.5754C31.3487 29.9018 30.9486 30.1391 30.4965 30.2541V30.8191C30.5001 30.9338 30.4777 31.048 30.4306 31.1549C30.3835 31.2619 30.3127 31.3593 30.2223 31.4416C30.1319 31.5239 30.0237 31.5893 29.9042 31.6339C29.7848 31.6786 29.6564 31.7016 29.5267 31.7016C29.397 31.7016 29.2686 31.6786 29.1491 31.6339C29.0297 31.5893 28.9215 31.5239 28.8311 31.4416C28.7407 31.3593 28.6699 31.2619 28.6228 31.1549C28.5757 31.048 28.5533 30.9338 28.5569 30.8191V30.2527C28.1048 30.138 27.7046 29.901 27.4124 29.5749C27.1202 29.2488 26.9507 28.85 26.9275 28.4343V27.6965C26.9239 27.5818 26.9462 27.4676 26.9933 27.3607C27.0404 27.2538 27.1113 27.1563 27.2017 27.074C27.2921 26.9918 27.4002 26.9264 27.5197 26.8817C27.6392 26.8371 27.7676 26.8141 27.8973 26.8141C28.027 26.8141 28.1553 26.8371 28.2748 26.8817C28.3943 26.9264 28.5024 26.9918 28.5928 27.074C28.6832 27.1563 28.7541 27.2538 28.8012 27.3607C28.8483 27.4676 28.8707 27.5818 28.867 27.6965V28.4343C28.9527 28.5124 29.0552 28.5744 29.1684 28.6168C29.2816 28.6592 29.4034 28.681 29.5263 28.681C29.6493 28.681 29.771 28.6592 29.8842 28.6168C29.9975 28.5744 30.0999 28.5124 30.1856 28.4343V27.1085C30.1084 27.0213 30.0073 26.9529 29.892 26.9097C29.7767 26.8666 29.6508 26.8501 29.5263 26.8619C28.8883 26.9022 28.2579 26.7187 27.7716 26.351C27.2852 25.9834 26.982 25.4611 26.9275 24.8971V23.5733C26.9504 23.1573 27.1201 22.758 27.4126 22.4317C27.7051 22.1053 28.1058 21.8682 28.5585 21.7536V21.1872C28.5548 21.0725 28.5772 20.9583 28.6243 20.8514C28.6714 20.7445 28.7422 20.647 28.8327 20.5647C28.9231 20.4824 29.0312 20.417 29.1507 20.3724C29.2701 20.3277 29.3985 20.3047 29.5282 20.3047C29.6579 20.3047 29.7863 20.3277 29.9058 20.3724C30.0252 20.417 30.1334 20.4824 30.2238 20.5647C30.3142 20.647 30.3851 20.7445 30.4321 20.8514C30.4792 20.9583 30.5016 21.0725 30.498 21.1872V21.7536C30.9498 21.8688 31.3496 22.1062 31.6414 22.4326C31.9332 22.7589 32.1023 23.1577 32.1251 23.5733Z" fill="#15556A"/>
</svg>