<svg xmlns="http://www.w3.org/2000/svg" width="66" height="63" viewBox="0 0 66 63" fill="none"><script xmlns=""/>
<path d="M29.1842 24.4685H36.8163C37.4843 24.4685 38.0253 23.9931 38.0253 23.4122V20.3304H41.595C42.263 20.3304 42.8041 19.8551 42.8041 19.2742V12.5878C42.8041 12.0042 42.26 11.5315 41.595 11.5315H38.0404V8.42601C38.0404 7.84241 37.4964 7.36972 36.8314 7.36972H29.1691C28.5011 7.36972 27.96 7.84505 27.96 8.42601V11.5315H24.4024C23.7344 11.5315 23.1934 12.0069 23.1934 12.5878V19.2742C23.1934 19.8578 23.7375 20.3304 24.4024 20.3304H27.9752V23.4095C27.9752 23.9931 28.5192 24.4685 29.1842 24.4685ZM25.6145 18.2179V13.6441H29.1721C29.8401 13.6441 30.3812 13.1688 30.3812 12.5878V9.48231H35.6224V12.5878C35.6224 13.1714 36.1664 13.6441 36.8314 13.6441H40.386V18.2152H36.8163C36.1483 18.2152 35.6072 18.6905 35.6072 19.2715V22.3506H30.3932V19.2742C30.3932 18.6905 29.8492 18.2179 29.1842 18.2179H25.6145Z" fill="#15556A"/>
<path d="M65.9758 6.6256C65.9698 4.49981 65.2504 2.749 63.8842 1.56331C62.8142 0.639058 61.2908 0.116192 59.2626 0C55.4934 0.0237666 52.8517 2.75165 52.8366 6.63617C52.8275 9.23729 52.8275 11.8411 52.8275 14.4844L52.8305 19.177C51.9056 19.5045 51.2074 20.1462 50.7721 20.5449C49.3696 21.823 48.1969 23.2332 46.9667 24.712L44.5214 27.6274C42.2937 30.2681 39.9875 32.9986 37.9502 35.8717C36.3573 38.1348 35.3719 40.7677 35.251 43.0915C35.0183 47.3167 35.0606 51.5471 35.1029 55.6376L35.112 56.3295C35.1241 57.7661 35.1362 59.2105 35.1362 60.6656C35.1362 61.9516 36.3331 63 37.8082 63H49.9621C51.4341 63 52.6341 61.9516 52.6341 60.6656L52.6492 56.4378C52.6643 53.4141 52.6794 50.4195 52.5978 47.4197C52.5494 45.6028 53.0602 44.2455 54.3116 42.8802C55.2758 41.8239 56.766 40.6832 58.3377 39.4763C60.5261 37.7942 62.79 36.0592 64.1804 34.1658C65.2383 32.7266 65.8882 30.8306 65.9245 29.093C66.0212 22.9982 66.003 16.906 65.9879 10.8112L65.9758 6.6256ZM63.5064 29.0586C63.4822 30.4186 62.9714 31.9001 62.1462 33.025C60.9432 34.6649 58.8092 36.3022 56.7448 37.8893C55.0884 39.1568 53.5287 40.3583 52.4255 41.5599C50.8356 43.2975 50.1192 45.175 50.1857 47.4672C50.2613 50.4459 50.2492 53.4247 50.2341 56.4272L50.216 60.663C50.216 60.7871 50.1072 60.8848 49.9651 60.8848H37.8112C37.6721 60.8848 37.5603 60.7871 37.5603 60.6656C37.5603 59.2026 37.5452 57.7529 37.5331 56.3137L37.5271 55.6218C37.4817 51.5603 37.4424 47.3589 37.6691 43.1945C37.7719 41.2139 38.6243 38.9508 40.0086 36.9835C41.9915 34.1817 44.2675 31.4881 46.474 28.8791L49.022 25.8396C50.1041 24.5351 51.2285 23.1856 52.5222 22.0079C52.8335 21.7227 53.4622 21.1444 53.9428 21.0889C53.9972 21.1047 54.0365 21.118 54.0517 21.1206C54.6743 21.2843 56.1342 21.6672 56.6058 22.6707C57.0712 23.6663 56.4425 25.0368 55.832 26.0139C55.1851 27.0438 54.4718 28.042 53.7524 29.0375C53.2507 29.7373 52.7489 30.4345 52.2744 31.1422L51.8482 31.7654C51.5066 32.2645 51.694 32.9141 52.2713 33.2125C52.8366 33.5083 53.5832 33.3498 53.9277 32.8428L54.3569 32.217C54.8224 31.5224 55.3121 30.8411 55.8048 30.1625C56.5453 29.1273 57.2858 28.0948 57.9538 27.0279C59.2112 25.0236 59.5105 23.2886 58.8455 21.8732C58.1019 20.2808 56.4032 19.589 55.2516 19.2404V14.4844C55.2486 11.8411 55.2486 9.24257 55.2607 6.64145C55.2698 3.90565 56.8476 2.12843 59.1961 2.11259C60.5382 2.18917 61.5447 2.5087 62.1855 3.06061C63.0832 3.84227 63.5608 5.07549 63.5608 6.63088L63.5729 10.8164C63.585 16.9007 63.6031 22.9823 63.5064 29.0586Z" fill="#15556A"/>
<path d="M28.0429 35.8662C26.0269 33.0168 23.7387 30.3048 21.4778 27.6271L18.963 24.6272C17.8235 23.254 16.6447 21.8359 15.2331 20.5446C14.8009 20.1459 14.0996 19.5068 13.1717 19.1767L13.1747 14.4841C13.1747 11.8408 13.1747 9.23964 13.1657 6.63587C13.1536 2.75135 10.5118 0.0234757 6.65194 0.00234985C4.70538 0.115901 3.185 0.641407 2.11802 1.56302C0.751804 2.74607 0.0294001 4.49688 0.0233548 6.62531L0.0112646 11.2809C-0.00384847 17.2173 -0.0189614 23.1563 0.0747394 29.0953C0.111011 30.8303 0.763894 32.7263 1.81878 34.1655C3.20918 36.0589 5.47312 37.7939 7.66149 39.476C9.23627 40.6829 10.7234 41.8237 11.6876 42.88C12.939 44.2452 13.4498 45.5999 13.3984 47.422C13.3259 50.4166 13.3379 53.4112 13.3531 56.4269L13.3682 60.6627C13.3712 61.9487 14.5681 62.9971 16.0402 62.9971H28.191C29.6631 62.9971 30.863 61.9513 30.863 60.6627C30.863 59.2076 30.8751 57.7631 30.8872 56.3266L30.8963 55.6373C30.9386 51.5442 30.9809 47.3164 30.7512 43.0912C30.6242 40.7647 29.6419 38.1319 28.0429 35.8662ZM28.4721 55.6215L28.4661 56.3107C28.454 57.7526 28.4389 59.2023 28.4389 60.6627C28.4389 60.7841 28.3271 60.8818 28.188 60.8818H16.0402C15.8981 60.8818 15.7893 60.7841 15.7893 60.66L15.7711 56.419C15.756 53.4165 15.7409 50.443 15.8165 47.4696C15.88 45.1748 15.1666 43.2972 13.5767 41.5596C12.4735 40.3554 10.9108 39.1565 9.25742 37.889C7.19298 36.3019 5.05902 34.6646 3.85602 33.0247C3.03085 31.8998 2.52003 30.4183 2.49585 29.061C2.39913 23.1378 2.41424 17.212 2.42935 11.2836L2.44446 6.63059C2.44446 5.0752 2.92204 3.84198 3.81975 3.06296C4.46054 2.50841 5.46707 2.18888 6.72448 2.11494C9.1607 2.12814 10.7385 3.90536 10.7476 6.64116C10.7597 9.23964 10.7597 11.8408 10.7566 14.4841V19.2322C9.6957 19.5438 7.92445 20.233 7.15973 21.8676C6.49476 23.2831 6.79702 25.0154 8.0514 27.0223C8.71638 28.0839 9.45691 29.1138 10.1944 30.1437C10.6871 30.8303 11.1798 31.5169 11.6483 32.2114L12.0715 32.8346C12.413 33.339 13.1566 33.5001 13.7279 33.2096C14.3022 32.9138 14.4956 32.2642 14.1571 31.7625L13.7339 31.1392C13.2533 30.4236 12.7485 29.7238 12.2438 29.0187C11.5244 28.0258 10.811 27.0329 10.1672 26.0057C9.55968 25.0312 8.92796 23.6607 9.39344 22.6651C9.86497 21.6643 11.3279 21.2787 11.9506 21.115C11.9657 21.1124 12.008 21.0992 12.0594 21.0833C12.54 21.1388 13.1687 21.7171 13.483 22.0023C14.7858 23.1906 15.9162 24.5506 17.083 25.9581L19.5766 28.9342C21.762 31.5222 24.0198 34.2025 25.9845 36.9779C27.3689 38.9426 28.2243 41.2084 28.3301 43.1916C28.5568 47.356 28.5175 51.5574 28.4721 55.6215Z" fill="#15556A"/>
</svg>