<svg xmlns="http://www.w3.org/2000/svg" width="66" height="63" viewBox="0 0 66 63" fill="none"><script xmlns=""/>
<path d="M62.1177 53.4884C62.1632 54.0323 61.7386 54.509 61.1688 54.5524L54.6451 55.0522C54.6172 55.0543 54.5901 55.055 54.5622 55.055C54.2887 55.055 54.0254 54.9514 53.8303 54.7659C53.6155 54.5608 53.5062 54.2766 53.5304 53.9882L54.054 47.7617C54.0995 47.2178 54.5996 46.8118 55.1687 46.8559C55.7385 46.8993 56.1638 47.376 56.1176 47.9199L55.8235 51.4227C61.0566 45.9669 63.9291 38.9235 63.9291 31.5C63.9291 25.4492 62.0231 19.6315 58.4173 14.6776C58.091 14.2296 58.2076 13.6136 58.6769 13.3021C59.1463 12.9913 59.7916 13.1019 60.1179 13.5499C63.9657 18.837 66 25.0439 66 31.5C66 39.4723 62.8943 47.0344 57.2411 52.8703L61.0038 52.5819C61.5736 52.5378 62.0723 52.9445 62.1177 53.4884ZM2.07093 31.5C2.07093 24.0765 4.9434 17.0338 10.1765 11.5787L9.8824 15.0815C9.83693 15.6254 10.2615 16.1021 10.8313 16.1455C10.8592 16.1476 10.8878 16.1483 10.9149 16.1483C11.4488 16.1483 11.902 15.7563 11.946 15.239L12.4696 9.0125C12.4938 8.7241 12.3845 8.4392 12.1697 8.2348C11.9548 8.0304 11.6571 7.9268 11.3549 7.9485L4.8312 8.4483C4.2614 8.4917 3.83607 8.9684 3.88227 9.5123C3.92847 10.0562 4.42787 10.4629 4.99693 10.4181L8.75967 10.1297C3.1064 15.9656 0 23.5277 0 31.5C0 37.9561 2.03427 44.1637 5.88207 49.4508C6.083 49.7273 6.40567 49.875 6.73347 49.875C6.93733 49.875 7.1434 49.8176 7.32307 49.6986C7.7924 49.3871 7.909 48.7711 7.58267 48.3231C3.97687 43.3685 2.07093 37.5515 2.07093 31.5ZM15.3758 7.238C20.5663 3.7961 26.6611 1.9768 33 1.9768C40.777 1.9768 48.1551 4.7187 53.8707 9.7139L50.2011 9.4332C49.6313 9.3891 49.1319 9.7951 49.0864 10.339C49.0409 10.8829 49.4655 11.3596 50.0353 11.403L56.5583 11.9028C56.5862 11.9049 56.6133 11.9056 56.6412 11.9056C56.9147 11.9056 57.178 11.802 57.3731 11.6165C57.5879 11.4114 57.6972 11.1272 57.673 10.8388L57.1494 4.6123C57.1039 4.0684 56.606 3.6638 56.0347 3.7065C55.4649 3.7499 55.0396 4.2266 55.0858 4.7705L55.3879 8.3622C49.2741 2.9652 41.3519 0 33 0C26.2365 0 19.734 1.9418 14.1951 5.6147C13.7258 5.9262 13.6092 6.5422 13.9355 6.9902C14.2619 7.4382 14.9065 7.5495 15.3758 7.238ZM50.6235 55.762C45.4337 59.2039 39.3397 61.0232 33 61.0232C25.223 61.0232 17.8442 58.2813 12.1293 53.2861L15.7989 53.5668C16.368 53.6116 16.8681 53.2049 16.9136 52.661C16.9591 52.1171 16.5345 51.6404 15.9647 51.597L9.44167 51.0972C9.13953 51.0748 8.84107 51.1791 8.62693 51.3835C8.41207 51.5886 8.3028 51.8728 8.327 52.1612L8.8506 58.3877C8.89387 58.905 9.34707 59.297 9.88167 59.297C9.90953 59.297 9.9374 59.2963 9.966 59.2942C10.5358 59.2508 10.9611 58.7741 10.9149 58.2302L10.6128 54.6385C16.7259 60.0355 24.6481 63 33 63C39.7635 63 46.2667 61.0582 51.8049 57.3853C52.2742 57.0738 52.3908 56.4578 52.0645 56.0098C51.7381 55.5618 51.0928 55.4512 50.6235 55.762ZM54.1581 31.5C54.1581 42.6363 44.6666 51.6964 33 51.6964C21.3334 51.6964 11.8419 42.6363 11.8419 31.5C11.8419 20.3637 21.3334 11.3036 33 11.3036C44.6666 11.3036 54.1581 20.3637 54.1581 31.5ZM52.0872 31.5C52.0872 21.4536 43.5248 13.2804 33 13.2804C22.4752 13.2804 13.9128 21.4536 13.9128 31.5C13.9128 41.5464 22.4752 49.7196 33 49.7196C43.5248 49.7196 52.0872 41.5464 52.0872 31.5ZM45.2225 41.1726C45.2225 41.7186 44.759 42.161 44.187 42.161H21.8123C21.2403 42.161 20.7768 41.7186 20.7768 41.1726C20.7768 36.1284 24.1479 31.822 28.853 30.1973C27.0761 28.9681 25.9175 26.9724 25.9175 24.7226C25.9175 20.9951 29.0943 17.9627 32.9993 17.9627C36.9043 17.9627 40.0811 20.9951 40.0811 24.7226C40.0811 26.9724 38.9224 28.9681 37.1455 30.1973C41.8513 31.8213 45.2225 36.1277 45.2225 41.1726ZM32.9963 29.5057C32.9978 29.5057 32.9985 29.5057 33 29.5057C33.0015 29.5057 33.0022 29.5057 33.0037 29.5057C35.7654 29.5043 38.0116 27.3588 38.0116 24.7226C38.0116 22.085 35.7639 19.9395 33.0007 19.9395C30.2375 19.9395 27.9899 22.085 27.9899 24.7226C27.9891 27.3588 30.2353 29.5036 32.9963 29.5057ZM43.0995 40.1842C42.5795 35.3045 38.2492 31.4832 33.0022 31.4818H33H32.9978C27.7508 31.4832 23.4212 35.3038 22.9005 40.1842H43.0995Z" fill="#15556A"/>
</svg>